<?xml version="1.0" encoding="UTF-8"?>
<svg enable-background="new 0 0 330.8 90.2" version="1.1" viewBox="0 0 330.8 90.2" xml:space="preserve" xmlns="http://www.w3.org/2000/svg">
<style type="text/css">
	.st0{fill:#4B4F54;}
	.st1{fill:#D70036;}
</style>
	<path class="st0" d="m107.8 54.4c-0.6 1.2-1.3 1.9-2.6 1.9s-2-0.7-2.6-1.9l-7.2-15v19.3c0 1.3 0 1.7-0.4 2.3-0.4 0.7-1.2 1.2-2.2 1.2s-1.8-0.5-2.2-1.2-0.4-1.1-0.4-2.3v-27.5c0-0.8 0.1-1.7 0.8-2.4 0.5-0.5 1.2-0.8 1.9-0.8 0.6 0 1.1 0.1 1.5 0.3s0.9 0.9 1.3 1.5l9.6 19.6 9.6-19.6c0.3-0.7 0.9-1.3 1.3-1.5 0.3-0.2 0.9-0.3 1.5-0.3s1.3 0.2 1.9 0.8c0.6 0.7 0.8 1.6 0.8 2.4v27.6c0 1.3 0 1.7-0.4 2.3-0.4 0.7-1.2 1.2-2.2 1.2s-1.8-0.5-2.2-1.2-0.4-1.1-0.4-2.3v-19.4l-7.4 15z"/>
	<path class="st0" d="m133.2 61.1c-0.4 0.7-1.2 1.2-2.2 1.2s-1.8-0.5-2.2-1.2-0.4-1.1-0.4-2.3v-27.3c0-1.3 0-1.7 0.4-2.3 0.4-0.7 1.2-1.2 2.2-1.2s1.8 0.5 2.2 1.2 0.4 1.1 0.4 2.3v27.2c-0.1 1.3-0.1 1.7-0.4 2.4z"/>
	<path class="st0" d="m146.6 61.1c-0.4 0.7-1.2 1.2-2.2 1.2s-1.8-0.5-2.2-1.2-0.4-1.1-0.4-2.3v-27.3c0-1.3 0-1.7 0.4-2.3 0.4-0.7 1.2-1.2 2.2-1.2s1.8 0.5 2.2 1.2 0.4 1.1 0.4 2.3v13.6l12.8-15.6c0.8-1 1.4-1.5 2.4-1.5 0.6 0 1.1 0.2 1.6 0.6 0.6 0.5 0.9 1.2 0.9 1.9s-0.3 1.2-1.1 2.2l-7.2 8.7 9.3 16.3c0.6 1 0.8 1.5 0.8 2.1 0 0.8-0.4 1.6-1.3 2.1-0.4 0.3-0.9 0.4-1.4 0.4-1.3 0-1.9-0.9-2.5-2.1l-8.5-14.9-5.8 6.9v6.6c0 1.2 0 1.6-0.4 2.3z"/>
	<path class="st0" d="m172.2 58.7v-27.4c0-0.8 0-1.7 0.7-2.4s1.6-0.7 2.4-0.7h10c6.4 0 10.5 4.1 10.5 9.9 0 4.8-2.9 7.9-6.7 9l6.1 10.6c0.6 1 0.8 1.5 0.8 2.1 0 0.8-0.4 1.6-1.3 2.1-0.4 0.3-0.9 0.4-1.4 0.4-1.3 0-1.9-0.9-2.5-2.1l-7.1-12.4h-6.4v11c0 1.3 0 1.7-0.4 2.3-0.4 0.7-1.2 1.2-2.2 1.2s-1.8-0.5-2.2-1.2c-0.3-0.7-0.3-1.1-0.3-2.4zm5.1-26v10.7h7.6c3.4 0 5.8-1.9 5.8-5.3s-2.3-5.4-5.8-5.4h-7.6z"/>
	<path class="st0" d="m201.2 45.1c0-7.1 0.1-10.5 3.4-13.8 2.2-2.2 5-3.4 8.8-3.4 3.7 0 6.6 1.3 8.8 3.4 3.3 3.3 3.4 6.7 3.4 13.8s-0.1 10.5-3.4 13.8c-2.2 2.2-5 3.4-8.8 3.4-3.7 0-6.6-1.3-8.8-3.4-3.2-3.3-3.4-6.7-3.4-13.8zm12.2 12.7c2 0 3.8-0.8 5-2.1 1.7-1.8 2-3.8 2-10.5s-0.3-8.8-2-10.5c-1.3-1.3-3-2.1-5-2.1-2.1 0-3.8 0.8-5 2.1-1.7 1.8-2 3.8-2 10.5s0.3 8.7 2 10.5c1.2 1.3 2.9 2.1 5 2.1z"/>
	<path class="st0" d="m234.9 31.3c2.2-2.2 5-3.4 8.7-3.4 4.3 0 6.8 1.3 8.9 3.5 1.9 2 2.6 4.2 2.6 5.4 0 0.9-0.2 1.5-0.7 1.9-0.5 0.5-1.1 0.7-1.8 0.7-0.6 0-1.2-0.2-1.5-0.5-0.5-0.4-0.9-1-1.3-1.9-1.2-2.9-3.1-4.6-6.3-4.6-2 0-3.6 0.8-4.9 2.1-1.8 1.9-2 4.1-2 10.5s0.2 8.6 2 10.5c1.2 1.3 2.9 2.1 4.9 2.1 3.2 0 5.1-1.7 6.3-4.6 0.4-0.9 0.7-1.5 1.3-1.9 0.4-0.3 0.9-0.5 1.5-0.5 0.7 0 1.3 0.2 1.8 0.7s0.7 1 0.7 1.9c0 1.2-0.7 3.4-2.6 5.4-2.1 2.2-4.6 3.5-8.9 3.5-3.7 0-6.5-1.3-8.7-3.4-3.3-3.3-3.4-6.7-3.4-13.8 0-6.9 0.2-10.3 3.4-13.6z"/>
	<path class="st0" d="m260.6 45.1c0-7.1 0.1-10.5 3.4-13.8 2.2-2.2 5-3.4 8.8-3.4 3.7 0 6.6 1.3 8.8 3.4 3.3 3.3 3.4 6.7 3.4 13.8s-0.1 10.5-3.4 13.8c-2.2 2.2-5 3.4-8.8 3.4-3.7 0-6.6-1.3-8.8-3.4-3.3-3.3-3.4-6.7-3.4-13.8zm12.1 12.7c2 0 3.8-0.8 5-2.1 1.7-1.8 2-3.8 2-10.5s-0.3-8.8-2-10.5c-1.3-1.3-3-2.1-5-2.1-2.1 0-3.8 0.8-5 2.1-1.7 1.8-2 3.8-2 10.5s0.3 8.7 2 10.5c1.2 1.3 3 2.1 5 2.1z"/>
	<path class="st0" d="m292.1 58.7v-27.4c0-0.8 0-1.7 0.7-2.4s1.6-0.7 2.4-0.7h9.7c6.6 0 10.8 4.4 10.8 10.3s-4.2 10.2-10.8 10.2h-7.7v10.1c0 1.3 0 1.7-0.4 2.3-0.4 0.7-1.2 1.2-2.2 1.2s-1.8-0.5-2.2-1.2c-0.3-0.7-0.3-1.1-0.3-2.4zm5.1-14.6h7.4c3.6 0 6-2.1 6-5.7s-2.4-5.7-6-5.7h-7.4v11.4z"/>
<path class="st0" d="m70.2 15h-50.1c-2.8 0-5 2.2-5 5v50.1c0 2.8 2.2 5 5 5h20.1v-10h-15v-40h40.1v15h10v-20c-0.1-2.8-2.3-5.1-5.1-5.1z"/>
<path class="st1" d="m77.2 70.2l-10-10h8v-10h-20c-2.8 0-5 2.2-5 5v15 5h10v-8l10 10c2 2 5.1 2 7.1 0 1.9-1.9 1.9-5.1-0.1-7z"/>
</svg>
